<?xml version="1.0" encoding="iso-8859-1"?>
<!-- Generator: Adobe Illustrator 19.0.0, SVG Export Plug-In . SVG Version: 6.00 Build 0)  -->
<svg version="1.1" id="Capa_1" xmlns="http://www.w3.org/2000/svg" xmlns:xlink="http://www.w3.org/1999/xlink" x="0px" y="0px"
	 viewBox="0 0 512 512" style="enable-background:new 0 0 512 512;" xml:space="preserve">
<path style="fill:#AEA8AF;" d="M442.921,0H69.08C46.676,0,28.445,18.23,28.445,40.635v260.064c0,22.405,18.23,40.635,40.635,40.635
	H442.92c22.405,0,40.635-18.23,40.635-40.635V40.635C483.556,18.23,465.326,0,442.921,0z M467.302,40.635V162.54h-32.508V16.254
	h8.127C456.365,16.254,467.302,27.19,467.302,40.635z M321.016,162.54h-32.508V16.254h32.508V162.54z M337.27,16.254h32.508V162.54
	H337.27V16.254z M272.254,162.54h-32.508V16.254h32.508V162.54z M223.493,162.54h-32.508V16.254h32.508V162.54z M174.73,162.54
	h-32.508V16.254h32.508V162.54z M125.969,162.54H93.461V16.254h32.508V162.54z M125.969,178.794V325.08H93.461V178.794H125.969z
	 M142.223,178.794h32.508V325.08h-32.508V178.794z M190.984,178.794h32.508V325.08h-32.508V178.794z M239.747,178.794h32.508V325.08
	h-32.508V178.794z M288.508,178.794h32.508V325.08h-32.508V178.794z M337.27,178.794h32.508V325.08H337.27V178.794z
	 M386.033,178.794h32.508V325.08h-32.508V178.794z M386.033,162.54V16.254h32.508V162.54H386.033z M69.08,16.254h8.127V162.54
	H44.699V40.635C44.699,27.19,55.636,16.254,69.08,16.254z M44.699,300.698V178.794h32.508V325.08H69.08
	C55.636,325.079,44.699,314.143,44.699,300.698z M442.921,325.079h-8.127V178.794h32.508v121.905
	C467.302,314.143,456.365,325.079,442.921,325.079z"/>
</svg>
