<?xml version="1.0" encoding="utf-8"?>
<!-- Generator: Adobe Illustrator 21.1.0, SVG Export Plug-In . SVG Version: 6.00 Build 0)  -->
<svg version="1.1" id="Calque_1" xmlns="http://www.w3.org/2000/svg" xmlns:xlink="http://www.w3.org/1999/xlink" x="0px" y="0px"
	 viewBox="0 0 432 432" style="enable-background:new 0 0 432 432;" xml:space="preserve">
<style type="text/css">
	.st0{fill:#74696B;}
	.st1{fill:#609176;}
	.st2{fill:#BF7B55;}
	.st3{fill:#B3B3B3;}
	.st4{fill:#1A1A1A;}
	.st5{fill:#59473F;}
	.st6{fill:#C1C3CC;}
	.st7{fill:#E5AA65;}
	.st8{fill:#995F4B;}
	.st9{fill:#A88E6C;}
	.st10{fill:#4F9969;}
	.st11{fill:#8DAF71;}
	.st12{fill:#D66B92;}
	.st13{fill:#86995C;}
	.st14{fill:#E5A18A;}
	.st15{fill:#A67463;}
	.st16{fill:#6B7A7D;}
	.st17{fill:#396650;}
	.st18{fill:#42210B;}
	.st19{fill:#E7AA8D;}
	.st20{fill:#9FAF88;}
	.st21{fill:#808080;}
	.st22{fill:#736357;}
	.st23{fill:#AD8674;}
	.st24{fill:#7E8AA4;}
	.st25{fill:#E0AB65;}
	.st26{fill:#ADBC82;}
	.st27{fill:#534741;}
	.st28{fill:#9F887D;}
	.st29{fill:#BC6753;}
	.st30{fill:#DDBE94;}
	.st31{fill:#333333;}
	.st32{fill:#3D5159;}
	.st33{fill:#754432;}
	.st34{fill:#806D66;}
	.st35{fill:#B59979;}
	.st36{fill:#506E87;}
	.st37{fill:#2A4654;}
	.st38{fill:#B28A7D;}
	.st39{fill:#736E6C;}
	.st40{fill:#998675;}
	.st41{fill:#383850;}
	.st42{fill:#EAAD98;}
	.st43{fill:#86B2CA;}
	.st44{fill:#998B87;}
	.st45{fill:#77939E;}
	.st46{fill:#4D4542;}
	.st47{fill:#816AA0;}
	.st48{fill:#C69C6D;}
	.st49{fill:#337D83;}
	.st50{fill:#CF7051;}
	.st51{fill:#919093;}
	.st52{fill:#E2BE7B;}
	.st53{fill:#D88770;}
	.st54{fill:#9A847A;}
	.st55{fill:#E7D5CD;}
	.st56{fill:#AF9882;}
	.st57{fill:#456353;}
	.st58{fill:#231F20;}
	.st59{fill:#424546;}
	.st60{fill:#B6906F;}
	.st61{fill:#C48837;}
	.st62{fill:#60795D;}
	.st63{fill:#D39D7B;}
	.st64{fill:#DDA2A1;}
	.st65{fill:#7BB4BB;}
	.st66{fill:#BF96B0;}
	.st67{fill:#89587E;}
	.st68{fill:#9EC49A;}
	.st69{fill:#34423C;}
	.st70{fill:#BC9A72;}
	.st71{fill:#E89650;}
	.st72{fill:#607390;}
	.st73{fill:#7E886B;}
	.st74{fill:#DBB588;}
	.st75{fill:#AB9688;}
	.st76{fill:#AF6EA0;}
	.st77{fill:#545A71;}
	.st78{fill:#72A371;}
	.st79{fill:#6E8770;}
	.st80{fill:#9D9F79;}
	.st81{fill:#9C4862;}
	.st82{fill:#445FA5;}
	.st83{fill:#6E967D;}
	.st84{fill:none;}
	.st85{fill:#B03553;}
	.st86{fill:#9A5499;}
	.st87{fill:#CFA5B7;}
	.st88{fill:#894491;}
	.st89{fill:#AE3034;}
	.st90{fill:#EFB156;}
	.st91{fill:#8689A9;}
	.st92{fill:#54A691;}
	.st93{fill:#79C1B6;}
	.st94{fill:#9F5398;}
	.st95{fill:#53A7DB;}
	.st96{fill:#98C355;}
	.st97{fill:#749B80;}
	.st98{fill:#607161;}
	.st99{fill:#97B898;}
	.st100{fill:#366E91;}
	.st101{fill:#D99A70;}
	.st102{fill:#84328A;}
	.st103{fill:#CB7052;}
	.st104{fill:#A8A8A8;}
	.st105{fill:#686C6D;}
	.st106{fill:#70615C;}
	.st107{fill:#5D876B;}
	.st108{fill:#78748A;}
	.st109{fill:#947B76;}
	.st110{fill:#E8A97C;}
	.st111{fill:#879B72;}
	.st112{fill:#B2B8A3;}
	.st113{fill:#7F8966;}
	.st114{fill:#91516B;}
	.st115{fill:#BF8B56;}
	.st116{fill:#8F7982;}
	.st117{fill:#BAA79E;}
	.st118{fill:#7F6D64;}
	.st119{fill:#7D9496;}
	.st120{fill:#8E6D76;}
	.st121{fill:#A54462;}
	.st122{fill:#BF924C;}
	.st123{fill:#713B47;}
	.st124{fill:#580E1D;}
	.st125{fill:#BB7578;}
	.st126{fill:#A54748;}
	.st127{fill:#79895B;}
	.st128{fill:#D3B9C4;}
	.st129{fill:#C1272D;}
	.st130{fill:#709983;}
	.st131{fill:#909B73;}
	.st132{fill:#721037;}
	.st133{fill:#748B96;}
	.st134{fill:#D1B361;}
	.st135{fill:#844A37;}
	.st136{fill:#D1916B;}
	.st137{fill:#56858C;}
	.st138{fill:#C6985C;}
	.st139{fill:#2E485E;}
	.st140{fill:#7C93A3;}
	.st141{fill:#C89698;}
	.st142{fill:#D1A661;}
	.st143{fill:#D18B61;}
	.st144{fill:#7F9BBA;}
	.st145{fill:#D17D61;}
	.st146{fill:#D99882;}
	.st147{fill:#C185A1;}
	.st148{fill:#94AD84;}
	.st149{fill:#CBA89D;}
	.st150{fill:#CCAB8B;}
	.st151{fill:#677B89;}
	.st152{fill:#7E9E6A;}
	.st153{fill:#E59F5A;}
	.st154{fill:#4D6040;}
	.st155{fill:#BA5B42;}
	.st156{fill:#844530;}
	.st157{fill:#BBA677;}
	.st158{fill:#BF7F9F;}
	.st159{fill:#FBB03B;}
	.st160{fill:#B24A58;}
	.st161{fill:#E29D86;}
	.st162{fill:#D89E64;}
	.st163{fill:#BA8B7F;}
	.st164{fill:#BFA37B;}
	.st165{fill:#8E9DBF;}
	.st166{fill:#4D4D4D;}
	.st167{fill:#B28E69;}
	.st168{fill:#7D8DAA;}
	.st169{fill:#48687A;}
	.st170{fill:#629599;}
	.st171{fill:#475E7A;}
	.st172{fill:#1D303F;}
	.st173{fill:#597687;}
	.st174{fill:#6A8955;}
	.st175{fill:#7DAF5A;}
	.st176{fill:#CF789A;}
	.st177{fill:#9391C6;}
	.st178{fill:#C49A6C;}
	.st179{fill:#8ABC9E;}
	.st180{fill:#999999;}
	.st181{fill:#8B4140;}
	.st182{fill:#29404F;}
	.st183{fill:#A05F50;}
	.st184{fill:#C4826C;}
	.st185{fill:#BF8574;}
	.st186{fill:#D39A46;}
	.st187{fill:#9BADCC;}
	.st188{fill:#D48E77;}
	.st189{fill:#D08E78;}
	.st190{fill:#517A5F;}
</style>
<g>
	<g>
		<path class="st166" d="M126,67.3c0,0.2-0.1,0.6-0.2,1.1c-0.7,2.7-0.9,5.4-0.4,8.2c0.7,3.6,2.5,6.5,5.2,8.8
			c1.8,1.5,3.8,2.9,5.7,4.2c1.3,1,2.7,1.9,4.1,2.8c5.4,3.7,8.7,8.8,10.4,15c2,7,1.4,13.9-1.2,20.6c-1.3,3.4-3.2,6.6-5.4,9.5
			c-0.3,0.4-0.8,0.9-1.2,1.2c-0.8,0.6-1.9,0.5-2.7,0c-0.8-0.6-1.1-1.5-0.9-2.5c0.4-1.6,0.9-3.3,1.2-4.9c0.9-4.4-0.2-8.4-2.4-12.1
			c-1.5-2.4-3.4-4.5-5.5-6.4c-2.3-2-4.6-4-6.9-6.1c-1.6-1.4-3.1-2.9-4.5-4.5c-5.9-6.8-8-14.7-6.2-23.6c0.8-4.1,2.4-7.9,5.1-11.2
			c0.7-0.8,1.5-1.6,2.4-2.2C124.2,64.2,126,65.3,126,67.3z"/>
		<path class="st166" d="M330.2,89.7c2.1,0,3.3,1.5,3,3.2c-0.2,0.9-0.5,1.7-0.7,2.6c-1.1,3.4-2.3,6.7-3.3,10.1
			c-1.3,4.5-1.1,8.9,0.6,13.3c1,2.7,2,5.4,3,8.2c1.7,5,2.7,10.1,2.4,15.3c-0.4,6.7-2.4,12.9-6.5,18.4c-1.5,1.9-3.4,3.3-5.6,4.2
			c-2,0.8-3.8-0.5-3.4-2.7c0.1-0.6,0.4-1.2,0.6-1.8c0.5-1.1,1-2.2,1.5-3.3c2.2-5.3,2.2-10.4-0.7-15.4c-1.2-2.1-2.4-4.1-3.8-6
			c-3.5-4.8-5.6-10.2-6.4-16.1c-0.6-4.4,0-8.7,1.6-12.9c2.1-5.2,5.4-9.5,10-12.7c2-1.4,4.1-2.6,6.1-3.8
			C329.2,90,329.9,89.8,330.2,89.7z"/>
		<path class="st166" d="M96.8,174.1c0-4,1-7.8,3-11.2c1.1-1.9,2.1-3.7,3.2-5.6c1-1.8,1.8-3.7,2-5.7c0.3-3.1-0.3-6.1-2.2-8.6
			c-0.5-0.6-1-1.2-1.4-1.9c-0.7-1-0.7-2,0-2.7c0.7-0.8,1.6-1.1,2.6-0.8c0.5,0.2,1,0.3,1.5,0.6c0.7,0.4,1.3,0.8,1.9,1.2
			c3.3,2.6,5.9,5.9,7.6,9.8c1.9,4.3,1.8,8.7,0.2,13c-0.8,2.2-2,4.2-3.4,6.1c-1.7,2.3-3.4,4.5-5.1,6.8c-1.2,1.6-1.8,3.4-1.9,5.4
			c-0.2,1.6,0.1,3.1,1,4.6c1,1.6,0,3.4-1.7,3.6c-0.9,0.1-1.7-0.2-2.2-0.8c-0.7-0.8-1.4-1.7-2-2.6C97.6,181.8,96.8,178.1,96.8,174.1z
			"/>
	</g>
	<g>
		<path class="st135" d="M331.8,207.3c0.2-2.9-1.1-4.9-3.5-6.3c-1.3-0.7-2.7-1.1-4.2-1.2c-1.1-0.1-2.2-0.2-3.2-0.3
			c-0.3-1.9-0.5-3.8-0.9-5.6c-1.7-8.9-4.8-17.3-8.9-25.3c-3.2-6.2-7.3-11.5-12.5-16.2c-6.5-5.8-13.9-10.1-21.7-13.7
			c-9.4-4.3-19.5-6.2-29.6-7.9c-1.8-0.3-3.7-0.5-5.6-0.7c0-4.7,0-9.4,0-14c1.7-0.1,3.3-0.2,4.9-0.4c2.1-0.3,4.2-0.8,6-2.1
			c2-1.5,3.1-3.4,3.1-5.9c-0.1-3.1-1.7-5.1-4.4-6.4c-1.4-0.7-2.8-1.1-4.3-1.2c-4.2-0.3-8.4-0.6-12.5-0.7
			c-12.1-0.2-24.1-0.4-36.2-0.1c-3,0.1-6,0.3-8.9,1c-2.4,0.5-4.6,1.4-6.4,3.1c-1.9,1.8-2.8,3.9-2.4,6.5c0.5,3.1,2.4,4.9,5.3,5.9
			c1.7,0.6,3.4,0.7,5.1,0.7c1.1,0,2.2,0,3.4,0c0.1,4.4,0.2,8.6,0.3,12.9c-0.2,0.1-0.4,0.1-0.6,0.2c-1.7,0.2-3.4,0.4-5,0.7
			c-4.6,0.8-9.3,1.6-13.9,2.6c-6.7,1.5-13,4-19.2,7c-4.8,2.3-9.3,4.9-13.6,8c-6.6,4.8-12,10.7-16.2,17.7c-5,8.4-8.2,17.4-10.4,26.9
			c-0.5,2.2-0.9,4.4-1.3,6.6c-0.4,0-0.8,0-1.2,0.1c-1.8,0.3-3.7,0.5-5.5,0.8c-1.5,0.3-2.9,0.8-4.2,1.7c-2.2,1.6-3.4,4.1-2.7,6.6
			c0.6,2.3,2.1,3.8,4.3,4.8c0.3,0.1,0.6,0.2,0.9,0.4c-0.7,0.6-1.4,1-1.9,1.6c-1.4,1.5-2.1,3.3-1.5,5.4c0.5,1.7,1.7,2.9,3.3,3.5
			c1.2,0.5,2.5,0.7,3.8,0.9c1.6,0.2,3.1,0.3,4.7,0.4c0.2,1.8,0.4,3.4,0.7,5c1.4,6.6,3.5,13,6.1,19.2c2.3,5.4,5.4,10.4,9.3,14.8
			c2.6,3,5.5,5.7,8.5,8.3c7,6.2,14.6,11.5,23.2,15.1c0.1,0.1,0.2,0.2,0.4,0.3c-0.5,1.2-0.9,2.4-1.4,3.6
			c-7.1,17.9-14.3,35.8-20.4,54.2c-1.4,4.3-2.9,8.5-4.4,12.7c-0.7,2.1-0.4,4,0.7,6c1.5,2.6,5.8,3.9,8.6,1.7c1.7-1.4,3.3-2.9,4.2-5
			c1-2.1,1.9-4.2,2.8-6.3c2.8-6.4,5.5-12.9,8.2-19.3c2-4.8,4-9.5,6-14.3c3-7,5.3-14.3,8.5-21.2c1.1-2.2,2-4.6,2.9-6.8
			c5.3,1,10.6,2.1,15.9,2.9c5.3,0.8,10.7,1.2,16.1,1.8c0,0.3,0,0.6,0,0.9c0,5.9,0,11.8,0.1,17.6c0,1.5,0,3.1,0.1,4.6
			c0.2,3.9,0.4,7.8,0.6,11.7c0.2,4.6,0.3,9.1,0.5,13.7c0.1,2.8,0.3,5.6,0.9,8.4c0.4,1.6,1,3.1,2,4.4c3.1,4.1,9,3.4,11.1-1.2
			c0.3-0.7,0.6-1.6,0.7-2.4c0.2-1.7,0.4-3.4,0.5-5.1c0-4,0.1-8-0.1-12c-0.1-3.5-0.4-7-0.6-10.5c-0.1-2.5-0.2-5-0.3-7.5
			c-0.2-4.5-0.4-9-0.6-13.4c-0.1-3.1-0.1-6.1-0.2-9.2c0-0.2,0.1-0.3,0.1-0.6c11.4-0.5,22.6-1.7,33.6-4.8c0.2,0.5,0.3,0.8,0.4,1.2
			c0.7,2.1,1.4,4.2,2.1,6.3c1.8,5.2,3.7,10.4,5.6,15.7c1.7,5,3.2,10.1,5.2,15.1c2.9,7.4,6.1,14.6,9.3,21.9c1.1,2.5,2.5,4.9,3.9,7.3
			c1,1.8,2.5,3.2,4.3,4.2c2.5,1.4,5.4,0.8,7.2-1.5c1.6-2,2-4.2,1.3-6.6c-0.4-1.5-0.9-2.9-1.4-4.3c-2-5.3-4.1-10.5-6.1-15.8
			c-3.6-9.6-7.2-19.3-10.9-28.9c-2.3-6-4.7-11.9-7-17.8c-0.1-0.3-0.3-0.7-0.4-1.1c0.2-0.1,0.4-0.2,0.5-0.3c1.9-0.8,3.8-1.5,5.6-2.4
			c8.1-3.6,15.6-8.1,22.2-14c4.8-4.3,8.7-9.4,12.1-14.9c6-9.8,9.1-20.4,8.5-32c0-0.3,0-0.6,0-0.9c1.1-0.1,2.2-0.2,3.2-0.3
			c1.2-0.1,2.5-0.4,3.6-1c3.6-2,4.3-6.5,1.5-9.4c-0.2-0.2-0.4-0.3-0.7-0.5c0.5-0.4,0.8-0.7,1-0.9
			C330.7,210.5,331.6,209.1,331.8,207.3z M245.7,239.7c0.8,0.5,1.6,0.4,2.3,0.4c0.6,0,1.2,0,1.8,0.2c1,0.3,1.6,1.2,1.6,2.1
			c0,1-0.5,1.7-1.4,2.1c-0.2,0.1-0.5,0.2-0.8,0.2c-1.9,0.2-3.8,0.2-5.6-0.5c-1.5-0.5-2.5-1.6-2.9-3.1c-0.4-1.5-0.7-3.1-0.8-4.7
			c-0.4-3.4-0.7-6.8-0.5-10.2c0.1-1.3,0.3-2.6,0.6-3.9c0.6-2.1,2.2-3.6,4.8-3.5c1,0,2,0,2.9,0c1.2,0,2,0.5,2.1,1.3
			c0.1,0.7-0.4,1.4-1.5,1.8c-0.9,0.3-1.8,0.4-2.8,0.6c-0.4,0.1-0.7,0.2-0.7,0.7c-0.1,3.2,0.1,6.3,0.3,9.6c1.2,0.1,2.3,0.1,3.3,0.2
			c0.6,0,1.2,0,1.8,0.2c1.1,0.3,1.8,1.3,1.7,2.4c-0.1,1-1.1,1.9-2.2,1.9c-1.1,0-2.2-0.2-3.4-0.3c-0.3,0-0.6-0.1-1-0.1
			C245.6,238.1,245.6,238.9,245.7,239.7z M227.5,116.6c0.2,4.1,0.3,8.2,0.5,12.3c-7.2-0.1-14.4-0.1-21.7-0.2
			c-0.1-4.1-0.2-8.3-0.3-12.5C213.3,116.5,220.4,116.1,227.5,116.6z M202.4,219.4c0.5,0.1,1.1,0.3,1.6,0.5c0.6,0.3,0.9,0.9,0.8,1.6
			c-0.1,0.7-0.6,1-1.2,1.2c-0.7,0.2-1.3,0.3-2,0.4c-0.6,0.1-0.9,0.4-1,1c0,0.2-0.1,0.4-0.1,0.7c0,3,0,6.1,0,9.3c0.7,0,1.2,0,1.8,0
			c0.4,0,0.8,0,1.2,0.1c0.9,0.3,1.3,1,1.3,1.8c-0.1,0.8-0.6,1.4-1.5,1.6c-0.4,0.1-0.7,0.1-1.1,0.1c-0.5,0-1,0-1.4-0.1
			c0,1.3,0,2.6,0,3.8c0,0.7-0.1,1.4-0.4,1.9c-0.8,1.5-2.6,1.7-3.7,0.4c-0.4-0.5-0.8-1.3-0.8-1.9c-0.5-4.6-0.9-9.3-0.7-14
			c0.1-1.3,0.2-2.7,0.5-4C196.4,220.2,198.8,218.9,202.4,219.4z M140.1,255.9c-0.7,0.5-1.5,0.5-2.2,0.1c-1.1-0.5-1.8-1.3-2.5-2.3
			c-2.5-3.6-4.7-7.5-6.2-11.6c-2.4-6.3-3.9-12.7-4.6-19.4c-0.3-3.4-0.5-6.9-0.6-9.3c0.2-9.3,0.8-17.5,3.1-25.5c0.8-2.8,1.7-5.5,3-8
			c0.7-1.4,1.6-2.6,2.5-3.9c0.3-0.4,0.7-0.8,1.1-1.1c0.5-0.3,1-0.4,1.5-0.1c0.6,0.3,0.8,0.8,0.7,1.4c-0.1,0.7-0.3,1.3-0.6,1.9
			c-1.2,2.9-2.2,5.8-3.1,8.8c-1.6,5.7-2.6,11.5-2.9,17.4c-0.3,5.7-0.2,11.4,0.3,17.1c0.8,7.7,2.7,15.2,5.9,22.3
			c1.2,2.6,2.7,5.1,4.3,7.5c0.5,0.8,0.9,1.6,1.1,2.6C141,254.6,140.9,255.4,140.1,255.9z M147.8,205.7c-0.9-4.5-1.9-9-2.6-13.5
			c-1.2-7.4-2.6-14.8-3.1-22.4c-0.1-2-0.5-4-0.7-5.9c-0.2-1.7-0.3-3.5-0.3-5.2c-0.1-2.6,0.7-5,2.4-7c1-1.2,2.1-2.3,3.3-3.2
			c2.4-1.8,4.4-1.2,5.9,1.6c0.6,1.2,0.8,2.7,1,4c0.5,5.3,0.9,10.6,1.4,15.9c0.3,3.5,0.7,7.1,1,10.6c0.2,2.4,0.5,4.9,0.7,7.5
			c1.5-0.4,2.7-1,3.7-1.8c3-2.4,5.5-5.1,7.3-8.6c2.5-4.8,3.8-9.9,4.7-15.1c0.5-2.7,0.4-5.4,0.2-8.1c-0.3-3.7-0.8-7.3-1.6-10.9
			c-0.2-0.7-0.2-1.5-0.1-2.2c0.2-1.3,1.6-2.2,2.8-2.4c1.1-0.2,2,0.4,2.6,1.6c0.8,1.7,1.1,3.5,1.4,5.3c0.7,4.4,0.8,8.9,0.7,13.3
			c-0.3,6.7-1.5,13.1-4.3,19.2c-2.3,4.9-5.5,9.3-9.7,12.8c-0.7,0.6-1.5,1.1-2.3,1.7c0.1,0.1,0.1,0.2,0.2,0.3
			c3.4,1.8,5.9,4.5,7.8,7.9c1.6,2.8,2.9,5.8,3.6,9c0.2,0.8,0.3,1.7,0.2,2.6c-0.1,1.3-1.1,2.2-2.4,2.5c-1.2,0.3-2.3-0.2-3.1-1.4
			c-0.3-0.4-0.5-0.9-0.7-1.4c-0.7-2-1.4-4-2-6c-0.8-2.9-2.7-5.1-4.9-7c-0.5-0.4-1.1-0.7-1.8-1.1c0.3,1.7,0.5,3.2,0.7,4.7
			c0.3,2.1,0.6,4.2,0.8,6.3c0.1,1.3-0.1,2.6-0.3,3.8c-0.1,1-0.8,1.8-1.8,2.1c-1.5,0.4-3,0.8-4.6,0.7c-2.3-0.1-3.9-1.3-4.6-3.5
			C148.7,209.9,148.2,207.8,147.8,205.7z M171.9,228.9c0,3-2.6,5.7-5.6,5.7c-2.9,0-5.5-2.7-5.5-5.9c0-3.2,2.3-5.6,5.4-5.6
			C169.3,223.1,171.9,225.7,171.9,228.9z M186.4,270.6c-0.7,3.1-1.6,6-3.3,8.7c-2.1,3.4-5.2,5.1-9.2,4.7c-3.4-0.3-6.6-1.1-9.6-2.6
			c-1.9-1-3.8-2-5.7-3.1c-6-3.5-8.7-8.9-8.9-16c0.3-6,2.3-11.6,6.5-16.5c1.6-1.8,3.6-3.1,5.8-4c3.1-1.2,6.1-1,9,0.5
			c3.5,1.8,8.7,4.4,9.1,8.4c0.1,0.9-0.1,1.8-0.4,2.7c-0.1,0.4-0.4,0.8-0.7,1.1c-0.7,0.6-1.6,0.3-1.9-0.6c-0.1-0.4-0.1-0.8-0.1-1.2
			c-0.1-2.2-4.4-3.9-6.4-4.5c-1.2-0.4-2.3-0.3-3.4,0.4c-1.3,0.8-2.2,1.9-3,3.2c-1,1.6-1.8,3.3-2.4,5.1c-0.8,2.5-1.6,5-1.8,7.7
			c-0.3,3.7,0.9,6.8,4.1,8.9c3.5,2.3,7.2,4.1,11.4,4.8c1.9,0.3,3.1-0.3,3.8-2c0.7-1.9,1.2-3.9,1.4-5.9c0.1-0.9-0.2-1.5-1.1-1.8
			c-1.2-0.4-2.5-0.9-3.7-1.4c-0.5-0.2-1-0.4-1.4-0.6c-1-0.6-1.5-1.7-1.3-2.7c0.2-1.1,1.1-2,2.3-2.1c0.6-0.1,1.2,0,1.8,0.1
			c2.4,0.5,4.5,1.6,6.5,2.9C185.9,266,187,268,186.4,270.6z M192.2,232.9c-0.1,1.6-0.5,3.2-0.8,4.8c-0.3,1.3-0.9,2.5-1.8,3.6
			c-1.8,2.3-4.5,2.9-7.1,1.5c-1.3-0.7-2.3-1.8-2.9-3.2c-0.9-1.8-1.3-3.8-1.5-5.7c-0.1-0.9-0.1-1.8-0.2-2.7c-0.1-2.5,0.4-4.8,1.4-7
			c1.5-3.1,4.7-4.5,7.9-3.4c1.8,0.6,2.9,1.8,3.6,3.5C192,226.9,192.4,229.9,192.2,232.9z M188.5,209c-0.5-2.6-0.9-5.3-1.1-7.9
			c-0.4-4.6-0.7-9.2-1-13.9c-0.3-6-0.5-12-0.7-18c-0.1-1.5-0.1-3.1-0.2-4c-0.2-5.6-0.5-10.7-0.6-15.7c-0.1-2.5,0-5.1,0.1-7.6
			c0-0.6,0.2-1.3,0.3-1.9c0.2-1,0.8-1.8,1.7-2.4c1.2-0.8,2.4-1.5,3.9-1.7c3.3-0.5,5.7,1.2,6.1,4.5c0.1,0.8,0.2,1.6,0.2,2.4
			c0.1,3.1,0.2,6.3,0.3,9.4c0.2,5.6,0.2,11.2,0.5,16.9c0.2,4.7,0.6,9.5,0.8,14.2c0.2,4.3,0.4,8.5,0.5,12.8c0.1,3.5,0.2,7,0.1,10.5
			c0,1-0.2,2.1-0.4,3.1c-0.6,2.5-1.9,3.6-4.4,3.8C192,213.7,189.1,212.6,188.5,209z M215,277.8c1,1.6,1.5,3.5,1.6,5.4
			c0.1,1.4,0.2,2.7,0.1,4.1c-0.2,2.5-2.7,4-4.9,3c-1.2-0.5-1.9-1.5-2.1-2.8c-0.2-1.2-0.2-2.5-0.4-3.7c-0.2-1-0.6-2-1-3
			c-0.3-0.6-0.8-1.1-1.5-1.2c-2.4-0.4-4.8-0.8-7.3-1.3c-0.1,1.3-0.2,2.3-0.3,3.4c-0.1,1.3-0.3,2.5-0.5,3.8c-0.1,0.5-0.2,1-0.4,1.4
			c-0.3,0.7-0.9,1.2-1.8,1.2c-0.8,0-1.5-0.4-1.8-1.2c-0.3-0.6-0.4-1.4-0.5-2.1c-0.1-1.1-0.1-2.2-0.1-3.3c0.2-5.1,0.3-10.2,0.5-15.3
			c0.1-2.4,0.3-4.9,0.6-7.3c0.4-3.7,2.5-6,5.9-7.1c1.5-0.5,3.1-0.8,4.8-0.8c2.8,0,5.3,1,7.1,3.1c2.5,2.9,4.4,6.2,4.9,10
			c0.6,4.3-0.6,8-3.7,11c-0.2,0.2-0.4,0.3-0.6,0.5C214.1,276.5,214.6,277.1,215,277.8z M219.4,222.6c-0.3,0.2-0.7,0.3-1.1,0.4
			c0.1,2.2,0.2,4.4,0.3,6.6c0.1,2,0.1,4,0.1,6c0,1.9,0,3.8,0.1,5.7c0,0.8,0,1.6-0.4,2.3c-0.9,1.5-2.6,1.7-3.8,0.4
			c-0.7-0.8-0.9-1.7-1-2.7c-0.3-4.3-0.4-8.6-0.2-12.9c0.1-1.8,0-3.7,0-5.6c-0.6-0.1-1.2-0.2-1.8-0.4c-0.8-0.2-1.3-0.7-1.4-1.6
			c-0.1-0.8,0.3-1.4,1-1.8c0.5-0.3,1.1-0.5,1.7-0.6c1.7-0.2,3.4-0.2,5.1-0.3c0.7,0,1.4,0.3,1.9,0.8
			C221.2,220.1,220.9,221.9,219.4,222.6z M234,287c-0.5,1.9-2.1,3.3-3.9,3.4c-2,0.1-3.8-1-4.4-3c-0.4-1.1-0.6-2.3-0.7-3.5
			c-0.5-6.2-0.9-12.4-1.2-18.6c-0.1-2.7,0.1-5.3,0.3-8c0.1-1,0.4-1.9,0.7-2.8c0.1-0.3,0.3-0.6,0.5-0.9c1.6-2.5,4.6-2.7,6.4-0.3
			c0.9,1.2,1.4,2.5,1.5,4c0.2,2.5,0.4,5,0.5,7.4c0.1,2.9,0.2,5.9,0.2,8.8c0,0,0.1,0,0.1,0c0.1,3.9,0.2,7.8,0.3,11.8
			C234.2,285.7,234.1,286.4,234,287z M236.9,243.1c-0.7,1.3-2.2,1.5-3.2,0.4c-0.7-0.7-1-1.6-1-2.6c0-0.9-0.1-1.7-0.2-2.6
			c-1.5,0-3,0-4.6,0c0,0.6,0.1,1.2,0,1.7c-0.1,0.9-0.2,1.7-0.4,2.5c-0.3,0.9-1,1.5-2,1.6c-1,0-1.7-0.5-2.1-1.4
			c-0.2-0.6-0.4-1.1-0.4-1.7c-0.1-2.1-0.1-4.1-0.1-6.2c0-1.4,0-2.9,0.1-4.3c0.1-2.7,0.3-5.5,0.5-8.2c0.1-0.8,0.3-1.6,0.6-2.3
			c0.3-0.8,0.9-1.3,1.8-1.3c0.9,0,1.5,0.5,1.8,1.3c0.3,0.8,0.6,1.7,0.6,2.5c0,3-0.1,6-0.1,9c0,1,0,1.9,0,3c1.4-0.1,2.8-0.2,4.2-0.2
			c0-0.5,0-0.9,0-1.3c-0.1-3.4-0.2-6.9-0.2-10.3c0-0.7,0.1-1.4,0.2-2.1c0.3-1.1,1.2-1.8,2.2-1.8c1.1,0,2,0.7,2.3,1.8
			c0.2,0.6,0.2,1.2,0.2,1.8c0,1.8,0,3.5-0.1,5.3c-0.1,4.3,0.2,8.7,0.5,13C237.4,241.5,237.3,242.3,236.9,243.1z M234.3,209.3
			c-1.1-1.4-2.3-2.9-3.2-4.5c-3.6-6-6.6-12.4-9.3-18.8c-2-4.7-3.9-9.3-5.9-14c-0.4-0.9-0.8-1.7-1.4-2.5c0,0.2-0.1,0.5-0.1,0.7
			c-0.3,5.7-0.2,11.4,0.1,17.1c0.2,3.9,0.5,7.8,0.8,11.7c0.2,3.3,0.4,6.6,0.5,9.8c0.1,1.2-0.4,2.2-1.5,2.8c-1.4,0.8-3,0.4-3.9-0.9
			c-0.3-0.6-0.6-1.2-0.7-1.9c-0.8-3-1.1-6-1.3-9.1c-0.4-6-0.7-12-1.1-18.1c-0.1-1-0.1-2-0.1-2.9c-0.1-8.8-0.2-17.7-0.1-26.5
			c0-3.4,0.5-6.8,0.8-10.1c0-0.1,0-0.2,0-0.2c0.7-4.2,4.7-5.7,8-3.1c2.4,1.9,4,4.4,5.1,7.2c1.4,3.5,2.7,7,4.1,10.6
			c3.5,9.4,6.9,18.9,10.5,28.3c1.6,4.1,3.5,8.2,5.3,12.2c0.2,0.4,0.4,0.7,0.6,1c0.1,0,0.1,0,0.2,0c0.1-0.6,0.1-1.2,0.2-1.9
			c0.7-9.7,0.9-19.5,1.1-29.3c0.1-7.1,0.3-14.3,0.5-21.4c0-1.5,0.2-3,0.5-4.5c0.3-2,2.3-3.1,4.2-2.5c1.6,0.5,2.6,1.6,3,3.3
			c0.2,1,0.4,1.9,0.5,2.9c0.4,3.8,0.2,7.7-0.1,11.5c-0.1,1.8-0.2,3.7-0.3,5.5c-0.3,4.5-0.7,9-1.1,13.5c-0.2,2.7-0.3,5.3-0.5,8
			c-0.4,5.9-0.7,11.7-1.5,17.6c-0.1,0.9-0.1,1.9-0.3,2.8c-0.3,1.6-0.6,3.1-1,4.6c-0.7,2.2-2.7,3.6-5,3.5c-1.3,0-2.6-0.3-3.9-0.6
			C236.4,211.1,235.2,210.4,234.3,209.3z M262.1,284.5c-0.1,0.1-0.2,0.2-0.4,0.3c-2.9,1.7-5.8,3.2-9.1,4c-4.6,1.1-8.3-0.8-10.1-5.1
			c-1.5-3.5-2.2-7.1-2.7-10.8c-0.6-5-1-10.1-1.5-15.1c-0.1-1.2-0.1-2.3,0.1-3.5c0.2-1.6,1.2-2.7,2.8-3c1.4-0.3,2.7,0.2,3.5,1.3
			c0.7,0.8,1.2,1.7,1.5,2.7c0.6,2,1,4,1.4,6.1c1,5.8,1.8,11.6,2.7,17.4c0.2,1,0.5,2,0.8,3.1c0.8-0.1,1.4-0.1,1.9-0.3
			c1.5-0.5,2.9-1,4.4-1.5c0.6-0.2,1.3-0.5,1.9-0.7c1.5-0.4,2.9,0.2,3.5,1.5C263.6,282.1,263.2,283.6,262.1,284.5z M287,271.3
			c-1.2,1.2-2.5,2.3-3.8,3.3c-1.5,1.1-3,2.2-4.6,3.1c-1,0.6-2.2,1.2-3.4,1.5c-2.2,0.7-4.3,0.4-6.1-1c-1.1-0.8-2-1.7-2.8-2.7
			c-0.8-0.9-1.4-1.9-2-3c-3.1-5.7-5.1-11.8-6.6-18.1c-0.3-1.2-0.2-2.5-0.2-3.7c0-0.4,0.1-0.9,0.3-1.3c1-2.8,3.7-3.6,6.1-1.9
			c0.9,0.7,1.6,1.5,2,2.5c0.7,1.6,1.3,3.1,1.8,4.7c1.5,5.1,3.3,10,5.7,14.8c0.4,0.7,0.8,1.4,1.2,2.2c0.7-0.3,1.3-0.5,1.8-0.8
			c1.3-0.8,2.7-1.7,4-2.6c0.9-0.6,1.9-1.3,2.8-1.9c0.9-0.6,1.8-0.7,2.8-0.4C288.2,266.8,288.8,269.6,287,271.3z M257.4,228.3
			c0-2.9,2.3-5.2,5.1-5.2c2.8,0,4.9,2.4,4.9,5.3c0,2.8-2.5,5.4-5.1,5.4C259.7,233.7,257.4,231.2,257.4,228.3z M290.9,192.1
			c-0.8,4.7-1.8,9.4-3.3,14c-0.9,2.8-2.1,5.4-4.1,7.6c-1.6,1.8-3.4,3.1-5.8,3.5c-5.8,0.9-10.5-1-14.1-5.5c-2.2-2.7-3.5-6-4.5-9.3
			c-1.7-5.5-2.6-11.1-2.5-16.8c0.1-7.2,0.8-14.4,2.7-21.4c1.2-4.3,3-8.3,5.9-11.7c1.4-1.7,3.1-3.2,5.2-4.2c3.7-1.8,7.3-1.7,10.8,0.5
			c4.4,2.9,6.6,7.2,6.7,12.5c0,0.7-0.2,1.4-0.6,2c-0.6,1.1-1.9,1-2.4-0.2c-0.2-0.5-0.3-1.1-0.5-1.6c-0.4-1.9-1.2-3.7-2.4-5.3
			c-0.8-1.1-1.9-1.9-3.2-2.4c-1.7-0.7-3.4-0.2-4.3,1.5c-0.7,1.3-1.3,2.6-1.7,3.9c-1,3.7-2.1,7.5-2.8,11.3c-0.6,3-0.7,6.1-0.9,9.1
			c-0.3,3.7-0.2,7.3,0,11c0.3,4.2,1.1,8.3,2.7,12.2c0.5,1.2,1.2,2.4,1.8,3.5c0.5,0.9,1.2,1.5,2.2,1.9c1,0.4,1.7,0.3,2.3-0.5
			c0.5-0.7,0.9-1.4,1.1-2.2c1.1-3.1,1.8-6.2,2.3-9.4c0.3-2.2,0.6-4.3,0.9-6.5c0-0.4,0-0.7,0-1.2c-1.1-0.1-2.2-0.2-3.3-0.3
			c-0.8-0.1-1.7-0.1-2.5-0.3c-1.3-0.3-2.2-1.4-2.2-2.7c0-1.3,0.8-2.4,2.1-2.7c1.7-0.5,3.4-0.4,5.1-0.1c1.6,0.2,3.2,0.7,4.9,1.1
			c1.9,0.5,3.1,1.7,3.7,3.5C291.1,188.5,291.2,190.3,290.9,192.1z M307.1,244c-2.2,4.9-4.8,9.5-8.5,13.4c-0.8,0.8-1.5,1.7-2.3,2.5
			c-0.2,0.2-0.4,0.3-0.6,0.5c-0.7,0.5-1.6,0.5-2.2,0c-0.7-0.5-1-1.4-0.6-2.2c0.3-0.8,0.8-1.6,1.3-2.3c1.5-2.1,3-4.1,4.5-6.1
			c1.3-1.9,2.3-4,3.1-6.1c1-2.5,2-5.1,3-7.6c1.4-3.5,2.1-7.2,2.7-11c0.7-4.6,1.2-9.1,1-13.7c-0.4-7.7-1.2-15.3-3.6-22.6
			c-0.9-2.9-2-5.8-3.4-8.5c-1.4-2.9-2.9-5.8-4.3-8.7c-0.1-0.2-0.2-0.4-0.3-0.6c-0.3-0.7-0.2-1.3,0.3-1.9c0.5-0.5,1.3-0.6,1.9-0.3
			c0.5,0.3,1,0.7,1.4,1.1c0.4,0.4,0.8,0.9,1.1,1.4c2.6,4.6,5.3,9.2,7.1,14.2c1.9,5.2,3.2,10.6,3.8,16.1c0.4,3.8,0.6,7.6,0.9,10.5
			C313,223.8,311.4,234.2,307.1,244z"/>
		<path class="st135" d="M203.5,258c-0.4,0.2-0.8,0.3-1.3,0.5c-0.7,0.3-1,0.8-1.1,1.6c-0.3,3-0.7,6-1,9c-0.1,1.1-0.2,2.3-0.3,3.6
			c1.8-0.2,3.4-0.4,5.1-0.7c1-0.2,1.9-0.4,2.9-0.7c1-0.3,1.5-1,1.6-2c0-0.5,0.1-1,0.1-1.5c0-2,0.2-3.9,0.1-5.9
			C209.3,258.7,206.6,256.8,203.5,258z"/>
		<path class="st135" d="M186.6,225.1c-1.2-0.6-2.1-0.7-2.8,0.7c-2.1,4-2.1,8-0.3,12.1c0.1,0.2,0.3,0.5,0.4,0.7
			c1.2,1.4,2.4,1.6,3.4-0.1c0.2-0.3,0.3-0.6,0.5-0.9c0.7-1.5,0.9-3.2,1-4.9c-0.1-2-0.4-4.2-1.2-6.2
			C187.3,225.9,187,225.3,186.6,225.1z"/>
	</g>
</g>
</svg>
