<?xml version="1.0" encoding="iso-8859-1"?>
<!-- Generator: Adobe Illustrator 19.0.0, SVG Export Plug-In . SVG Version: 6.00 Build 0)  -->
<svg version="1.1" id="Layer_1" xmlns="http://www.w3.org/2000/svg" xmlns:xlink="http://www.w3.org/1999/xlink" x="0px" y="0px"
	 viewBox="0 0 511.988 511.988" style="enable-background:new 0 0 511.988 511.988;" xml:space="preserve">
<g>
	<polygon style="fill:#E9573F;" points="49.904,189.566 0,251.112 73.076,289.338 85.076,248.885 	"/>
	<polygon style="fill:#E9573F;" points="462.098,189.566 511.988,251.112 438.912,289.338 426.912,248.885 	"/>
</g>
<g>
	<path style="fill:#E6E9ED;" d="M349.633,185.308c-0.016-0.031-2.328-3.094-3.438-6.961c-1.297-4.554-0.5-7.858,2.688-11.062
		c8.672-8.695,11.531-19.992,8.078-31.812c-2.328-7.945-6.812-13.554-7.391-14.257c-0.016,0-0.016,0-0.016,0
		c0-0.008-0.016-0.016-0.016-0.023l0,0c-1.953-2.352-4.906-3.859-8.203-3.859c-5.891,0-10.672,4.773-10.672,10.664
		c0,2.593,0.922,4.96,2.453,6.812l0,0c0.016,0.023,2.281,2.938,3.359,6.656c1.281,4.359,0.469,7.578-2.703,10.766
		c-8.641,8.68-11.516,20.039-8.078,31.999c2.312,8.094,6.828,13.836,7.328,14.461l0,0c1.969,2.422,4.953,3.977,8.312,3.977
		c5.891,0,10.656-4.773,10.656-10.672C351.992,189.464,351.101,187.136,349.633,185.308L349.633,185.308z"/>
	<path style="fill:#E6E9ED;" d="M274.478,121.341c-3.172-11.945-9.297-20.226-9.984-21.132l-0.016,0.008
		c-1.953-2.555-5.016-4.219-8.484-4.219c-5.891,0-10.656,4.781-10.656,10.672c0,2.406,0.797,4.617,2.141,6.406v0.008
		c0.047,0.055,4.484,6.101,6.531,14.312c2.453,9.835,0.5,18.195-6,25.539c-11.391,12.891-15.031,28.702-10.5,45.726
		c3.172,11.944,9.312,20.226,10,21.132l0.016-0.008c1.938,2.555,5.016,4.211,8.469,4.211c5.891,0,10.672-4.773,10.672-10.664
		c0-2.406-0.812-4.616-2.156-6.405l0.016-0.008c-0.047-0.062-4.5-6.102-6.547-14.312c-2.453-9.836-0.484-18.187,6.016-25.538
		C275.384,154.176,279.009,138.364,274.478,121.341z"/>
	<path style="fill:#E6E9ED;" d="M186.292,135.473c-2.328-7.945-6.812-13.554-7.39-14.257l0,0c-0.016-0.008-0.016-0.016-0.016-0.023
		h-0.016c-1.953-2.352-4.906-3.859-8.203-3.859c-5.891,0-10.672,4.773-10.672,10.664c0,2.593,0.922,4.96,2.453,6.812l0,0
		c0.031,0.023,2.281,2.938,3.359,6.656c1.281,4.359,0.469,7.578-2.703,10.766c-8.641,8.68-11.516,20.039-8.078,31.999
		c2.328,8.094,6.828,13.836,7.328,14.461h0.016c1.953,2.422,4.938,3.977,8.297,3.977c5.891,0,10.672-4.773,10.672-10.672
		c0-2.531-0.891-4.859-2.375-6.688l0,0c-0.016-0.031-2.312-3.094-3.438-6.961c-1.297-4.554-0.5-7.858,2.703-11.062
		C186.886,158.59,189.745,147.293,186.292,135.473z"/>
</g>
<path style="fill:#FC6E51;" d="M469.333,287.994c0-35.343-28.655-64-63.999-64c-19.671,0-37.28,8.883-49.014,22.844
	c-0.062,0.086-8.797,9.477-23.938,19.015c-23.312,14.703-49.014,22.141-76.388,22.141c-25.969,0-50.499-6.734-72.921-20.031
	c-15.296-9.062-24.765-18.429-27.28-21.054l-1.266-1.398l0,0c-11.719-13.196-28.827-21.517-47.858-21.517
	c-35.343,0-63.998,28.656-63.998,64c0,15.688,5.64,30.029,14.983,41.154l0,0c0.156,0.188,0.344,0.406,0.562,0.656
	c0.031,0.031,0.062,0.062,0.094,0.109c4.594,5.344,22.516,24.969,53.062,44.234c43.437,27.375,93.451,41.842,144.622,41.842
	c51.186,0,101.186-14.467,144.637-41.842c30.562-19.281,48.484-38.906,53.078-44.25c0.016-0.031,0.031-0.047,0.047-0.062
	c0.219-0.25,0.422-0.5,0.578-0.688l0,0C463.692,318.023,469.333,303.682,469.333,287.994z"/>
<g style="opacity:0.2;">
	<path style="fill:#FFFFFF;" d="M106.669,234.666c19.031,0,36.14,8.312,47.858,21.508l1.266,1.398
		c2.516,2.625,11.984,12,27.28,21.062c22.422,13.297,46.952,20.031,72.921,20.031c27.374,0,53.076-7.453,76.389-22.141
		c15.141-9.539,23.875-18.938,23.938-19.023c11.733-13.96,29.343-22.835,49.014-22.835c33.531,0,61.046,25.796,63.765,58.64
		c0.141-1.75,0.234-3.531,0.234-5.312c0-35.343-28.655-64-63.999-64c-19.671,0-37.28,8.883-49.014,22.844
		c-0.062,0.086-8.797,9.477-23.938,19.015c-23.313,14.703-49.015,22.141-76.389,22.141c-25.969,0-50.499-6.734-72.921-20.031
		c-15.296-9.062-24.765-18.429-27.28-21.054l-1.266-1.398c-11.719-13.196-28.827-21.517-47.858-21.517
		c-35.343,0-63.998,28.656-63.998,64c0,1.781,0.078,3.562,0.219,5.312C45.624,260.463,73.123,234.666,106.669,234.666z"/>
</g>
<g style="opacity:0.1;">
	<path d="M468.427,277.306c-1.922,11.5-6.906,21.969-14.093,30.516l0,0c-0.156,0.188-0.359,0.422-0.578,0.672
		c-0.016,0.031-0.031,0.062-0.047,0.078c-4.594,5.326-22.516,24.967-53.078,44.232c-43.451,27.376-93.451,41.86-144.637,41.86
		c-51.171,0-101.186-14.484-144.622-41.859c-30.546-19.25-48.468-38.875-53.062-44.217c-0.031-0.031-0.062-0.078-0.094-0.109
		c-0.219-0.25-0.406-0.484-0.562-0.656l0,0c-7.188-8.547-12.171-19.016-14.093-30.516c-0.578,3.469-0.891,7.047-0.891,10.688
		c0,15.688,5.64,30.029,14.983,41.154l0,0c0.156,0.188,0.344,0.406,0.562,0.656c0.031,0.031,0.062,0.062,0.094,0.109
		c4.594,5.344,22.516,24.969,53.062,44.234c43.437,27.375,93.451,41.842,144.622,41.842c51.186,0,101.186-14.467,144.637-41.842
		c30.562-19.281,48.484-38.906,53.078-44.25c0.016-0.031,0.031-0.047,0.047-0.062c0.219-0.25,0.422-0.5,0.578-0.688l0,0
		c9.358-11.125,14.999-25.467,14.999-41.154C469.333,284.353,469.02,280.775,468.427,277.306z"/>
</g>
<g>
</g>
<g>
</g>
<g>
</g>
<g>
</g>
<g>
</g>
<g>
</g>
<g>
</g>
<g>
</g>
<g>
</g>
<g>
</g>
<g>
</g>
<g>
</g>
<g>
</g>
<g>
</g>
<g>
</g>
</svg>
